#N canvas 4 0 1920 966 12;
#X obj 422 158 netreceive -u -b 8000;
#X obj 461 251 oscparse;
#X obj 450 344 list trim;
#X obj 454 421 route hit;
#X obj 866 502 unpack f f f f f f;
#X obj 248 677 select 0;
#X obj 351 690 select 1;
#X obj 526 698 select 2;
#X obj 608 704 select 3;
#X obj 695 704 select 4;
#X obj 783 706 select 5;
#X obj 870 706 select 6;
#X obj 617 376 route bpm;
#X obj 616 1133 catch~ delay;
#X obj 617 1172 lop~ 2000;
#X obj 618 1207 *~ 0.9;
#X obj 671 1339 throw~ left;
#X obj 769 1337 throw~ right;
#X obj 890 1337 throw~ delay;
#X obj 725 1446 catch~ right;
#X obj 650 1488 dac~;
#X obj 621 1448 catch~ left;
#X obj 295 909 r EOC;
#X obj 300 956 bng 19 250 50 0 empty empty empty 0 -10 0 12 #fcfcfc #000000 #000000;
#X obj 43 1030 random 88;
#X obj 224 1027 random 88;
#X obj 136 1028 random 88;
#X obj 44 1062 + 21;
#X obj 226 1063 + 21;
#X obj 145 1064 + 21;
#X floatatom 43 1096 5 0 0 0 - - - 0;
#X floatatom 151 1095 5 0 0 0 - - - 0;
#X floatatom 234 1094 5 0 0 0 - - - 0;
#X obj 39 1134 mtof;
#X obj 146 1132 mtof;
#X obj 233 1133 mtof;
#X obj 140 1182 osc~ 440;
#X obj 43 1278 *~;
#X obj 145 1223 *~;
#X obj 43 1320 osc~ 440;
#X obj 110 1367 *~ 0;
#X obj 113 1411 bp~ 100 3;
#X obj 101 1455 throw~ left;
#X obj 210 1456 throw~ right;
#X obj 329 1455 throw~ delay;
#X obj 539 1020 delay 5;
#X obj 539 1044 delay 500;
#X obj 539 1068 random 3000;
#X obj 539 1092 + 100;
#X msg 539 1116 0 \$1;
#X obj 305 1029 random 500;
#X obj 345 1056 + 50;
#X msg 350 1083 0.5 \$1;
#X obj 353 1124 line 0 3;
#X floatatom 353 1148 5 0 0 0 - - - 0;
#X obj 353 1171 sel 0;
#X obj 351 1208 bng 19 250 50 0 empty empty empty 0 -10 0 12 #fcfcfc #000000 #000000;
#X obj 353 1251 spigot;
#X obj 353 1275 bng 19 250 50 0 empty empty empty 0 -10 0 12 #fcfcfc #000000 #000000;
#X obj 353 1299 delay 200;
#X obj 353 1323 s EOC;
#X obj 473 1190 delay 100;
#X msg 473 1214;
#X msg 473 1214 1;
#X msg 425 1217 0;
#X obj 422 1252 tgl 19 0 empty empty empty 0 -10 0 12 #fcfcfc #000000 #000000 0 1;
#X obj 506 1273 delwrite~ delBuff2 1000;
#X obj 849 1451 delread~ delBuff2 1000;
#X obj 1168 1449 delread~ delBuff2 900;
#X obj 843 962 osc~;
#X obj 866 1053 *~ 0.1;
#X obj 922 897 * 2;
#X floatatom 925 943 5 0 0 0 - - - 0;
#X obj 925 966 osc~;
#X obj 925 990 *~ 0.75;
#X floatatom 997 946 5 0 0 0 - - - 0;
#X obj 997 969 osc~;
#X obj 994 900 * 3;
#X obj 997 993 *~ 0.5;
#X floatatom 1066 944 5 0 0 0 - - - 0;
#X obj 1066 967 osc~;
#X obj 1063 898 * 4;
#X floatatom 1137 946 5 0 0 0 - - - 0;
#X obj 1137 969 osc~;
#X obj 1134 900 * 5;
#X obj 1066 991 *~ 0.35;
#X obj 1137 993 *~ 0.25;
#X floatatom 850 823 5 0 0 0 - - - 0;
#X obj 864 1108 dac~;
#X obj 359 738 bng 19 250 50 0 empty empty empty 0 -10 0 12 #fcfcfc #000000 #000000;
#X msg 353 783 200;
#X obj 353 807 osc~ 200;
#X obj 372 910 dac~;
#X obj 440 839 + 6;
#X obj 443 883 osc~ 206;
#X msg 447 695 10;
#X msg 489 740 6;
#X msg 501 827 3;
#X obj 353 831 *~;
#X obj 441 941 *~;
#X obj 1150 638 * 5;
#X obj 1157 729 osc~;
#X obj 1225 870 dac~;
#X obj 1181 771 lop~ 350;
#X obj 1154 689 + 100;
#X obj 1138 598 * 10;
#X obj 1217 813 *~;
#X msg 536 747 60;
#X msg 605 753 62;
#X msg 700 758 64;
#X msg 774 762 66;
#X msg 854 762 68;
#X obj 642 822 mtof;
#X obj 655 862 osc~;
#X obj 662 975 dac~;
#X obj 648 909 *~ 0.5;
#X obj 1270 726 osc~;
#X obj 1338 867 dac~;
#X obj 1294 768 lop~ 350;
#X obj 1267 686 + 100;
#X obj 1251 595 * 10;
#X obj 1330 810 *~ 0.4;
#X obj 1263 635 * 10;
#X connect 0 0 1 0;
#X connect 1 0 2 0;
#X connect 2 0 3 0;
#X connect 2 0 12 0;
#X connect 3 0 4 0;
#X connect 4 0 5 0;
#X connect 4 0 9 0;
#X connect 4 0 8 0;
#X connect 4 0 7 0;
#X connect 4 0 6 0;
#X connect 4 0 11 0;
#X connect 4 0 10 0;
#X connect 4 1 98 1;
#X connect 4 2 99 1;
#X connect 4 3 105 0;
#X connect 4 4 106 1;
#X connect 4 5 120 0;
#X connect 5 0 23 0;
#X connect 6 0 89 0;
#X connect 7 0 107 0;
#X connect 8 0 108 0;
#X connect 9 0 109 0;
#X connect 10 0 110 0;
#X connect 11 0 111 0;
#X connect 12 0 87 0;
#X connect 13 0 14 0;
#X connect 14 0 15 0;
#X connect 15 0 66 0;
#X connect 19 0 20 1;
#X connect 21 0 20 0;
#X connect 22 0 23 0;
#X connect 23 0 24 0;
#X connect 23 0 26 0;
#X connect 23 0 25 0;
#X connect 23 0 45 0;
#X connect 23 0 50 0;
#X connect 23 0 61 0;
#X connect 24 0 27 0;
#X connect 25 0 28 0;
#X connect 26 0 29 0;
#X connect 27 0 30 0;
#X connect 28 0 32 0;
#X connect 29 0 31 0;
#X connect 30 0 33 0;
#X connect 31 0 34 0;
#X connect 32 0 35 0;
#X connect 33 0 37 0;
#X connect 33 0 38 1;
#X connect 34 0 36 0;
#X connect 35 0 41 1;
#X connect 36 0 38 0;
#X connect 37 0 39 0;
#X connect 38 0 37 1;
#X connect 39 0 40 0;
#X connect 40 0 41 0;
#X connect 41 0 42 0;
#X connect 41 0 43 0;
#X connect 41 0 44 0;
#X connect 45 0 46 0;
#X connect 46 0 47 0;
#X connect 47 0 48 0;
#X connect 48 0 49 0;
#X connect 49 0 53 0;
#X connect 50 0 51 0;
#X connect 51 0 52 0;
#X connect 51 0 46 1;
#X connect 52 0 53 0;
#X connect 53 0 40 1;
#X connect 53 0 54 0;
#X connect 54 0 55 0;
#X connect 55 0 56 0;
#X connect 56 0 57 0;
#X connect 57 0 58 0;
#X connect 58 0 59 0;
#X connect 58 0 64 0;
#X connect 59 0 60 0;
#X connect 61 0 62 0;
#X connect 61 0 63 0;
#X connect 62 0 65 0;
#X connect 64 0 65 0;
#X connect 65 0 57 1;
#X connect 67 0 16 0;
#X connect 68 0 17 0;
#X connect 68 0 18 0;
#X connect 69 0 70 0;
#X connect 70 0 88 0;
#X connect 70 0 88 1;
#X connect 71 0 72 0;
#X connect 72 0 73 0;
#X connect 73 0 74 0;
#X connect 74 0 70 0;
#X connect 75 0 76 0;
#X connect 76 0 78 0;
#X connect 77 0 75 0;
#X connect 78 0 70 0;
#X connect 79 0 80 0;
#X connect 80 0 85 0;
#X connect 81 0 79 0;
#X connect 82 0 83 0;
#X connect 83 0 86 0;
#X connect 84 0 82 0;
#X connect 85 0 70 0;
#X connect 86 0 70 0;
#X connect 87 0 69 0;
#X connect 87 0 84 0;
#X connect 87 0 81 0;
#X connect 87 0 77 0;
#X connect 87 0 71 0;
#X connect 89 0 90 0;
#X connect 90 0 91 0;
#X connect 90 0 93 0;
#X connect 91 0 98 0;
#X connect 93 0 94 0;
#X connect 94 0 99 0;
#X connect 95 0 89 0;
#X connect 95 0 93 1;
#X connect 96 0 89 0;
#X connect 96 0 93 1;
#X connect 97 0 89 0;
#X connect 97 0 93 1;
#X connect 98 0 92 0;
#X connect 99 0 92 1;
#X connect 100 0 104 0;
#X connect 101 0 103 0;
#X connect 103 0 106 0;
#X connect 104 0 101 0;
#X connect 105 0 100 0;
#X connect 106 0 102 0;
#X connect 106 0 102 1;
#X connect 107 0 112 0;
#X connect 108 0 112 0;
#X connect 109 0 112 0;
#X connect 110 0 112 0;
#X connect 111 0 112 0;
#X connect 112 0 113 0;
#X connect 113 0 115 0;
#X connect 115 0 114 0;
#X connect 115 0 114 1;
#X connect 116 0 118 0;
#X connect 118 0 121 0;
#X connect 119 0 116 0;
#X connect 120 0 122 0;
#X connect 121 0 117 0;
#X connect 121 0 117 1;
#X connect 122 0 119 0;
